<svg xmlns="http://www.w3.org/2000/svg" width="430" height="430" fill="none" viewBox="0 0 430 430"><path fill="#4bb3fd" d="M379.64 248.597A168.8 168.8 0 0 0 383 215c0-10.658-.992-21.083-2.89-31.19a2.96 2.96 0 0 0-2.922-2.407L231.44 181.4a3 3 0 0 0-3 3v61.2a3 3 0 0 0 3 3h69.661c-8.037 20.581-23.241 37.573-42.543 47.91l56.012 53.817c32.901-24.248 56.641-60.207 65.069-101.727z"/><path fill="#f24c00" d="m126.802 187.369-60.45-50.723C94.513 83.333 150.514 47 215 47c40.156 0 77.021 14.088 105.922 37.592 1.356 1.103 1.446 3.13.219 4.374l-49.271 49.951c-1.05 1.065-2.721 1.189-3.946.332C252.934 128.756 234.686 122.6 215 122.6c-41.406 0-76.451 27.235-88.198 64.769"/><path fill="#ffc738" d="M66.353 136.646C53.996 160.04 47 186.703 47 215c0 29.274 7.487 56.799 20.651 80.765l60.056-50.393c-3.309-9.513-5.107-19.732-5.107-30.372a92.4 92.4 0 0 1 4.202-27.631z"/><path fill="#4bb3fd" d="M286.643 323.494C321.807 300.227 345 260.322 345 215H228.44v30.6a3 3 0 0 0 3 3h69.661c-8.037 20.581-23.241 37.573-42.543 47.91z" opacity=".5" style="mix-blend-mode:multiply"/><path fill="#2ca58d" d="m323.375 343.375-53.804-53.804C254.28 300.781 235.413 307.4 215 307.4c-40.391 0-74.73-25.917-87.292-62.028l-60.057 50.393C96.211 347.759 151.49 383 215 383c41.301 0 79.12-14.903 108.375-39.625"/><path fill="#2ca58d" d="M296.382 316.382C274.105 334.286 245.804 345 215 345c-51.86 0-96.628-30.367-117.491-74.289l30.199-25.339C140.27 281.483 174.609 307.4 215 307.4c20.413 0 39.28-6.619 54.571-17.829z" opacity=".5" style="mix-blend-mode:multiply"/><path fill="#ffc738" d="M97.509 270.711C89.488 253.826 85 234.937 85 215c0-18.95 4.055-36.953 11.344-53.189l30.458 25.558A92.4 92.4 0 0 0 122.6 215c0 10.639 1.798 20.859 5.107 30.372z" opacity=".5" style="mix-blend-mode:multiply"/><path fill="#f24c00" d="m96.344 161.811 30.458 25.558C138.549 149.835 173.594 122.6 215 122.6c19.686 0 37.934 6.156 52.924 16.649 1.225.857 2.896.733 3.946-.332l24.758-25.1C274.314 95.793 245.918 85 215 85c-52.847 0-98.329 31.534-118.656 76.811" opacity=".5" style="mix-blend-mode:multiply"/></svg>